<?xml version="1.0" encoding="UTF-8"?>
<svg xmlns="http://www.w3.org/2000/svg" width="16" height="16" viewBox="0 0 16 16">
  <!-- Error state: the robot's screen shows an exclamation mark. -->
  <g fill="#bebebe">
    <circle cx="8" cy="2" r="1.15"/>
    <rect x="7.45" y="2.6" width="1.1" height="1.8"/>
    <path fill-rule="evenodd" d="
      M5 4.4 h6 a2.8 2.8 0 0 1 2.8 2.8 v4.2 a2.8 2.8 0 0 1 -2.8 2.8 h-6
      a2.8 2.8 0 0 1 -2.8 -2.8 v-4.2 a2.8 2.8 0 0 1 2.8 -2.8 Z
      M7.15 6.7 a0.85 0.85 0 0 1 1.7 0 v2.3 a0.85 0.85 0 0 1 -1.7 0 Z
      M7.15 11.1 a0.85 0.85 0 0 1 1.7 0 a0.85 0.85 0 0 1 -1.7 0 Z"/>
  </g>
</svg>
