<?xml version="1.0" encoding="UTF-8"?>
<svg xmlns="http://www.w3.org/2000/svg" width="16" height="16" viewBox="0 0 16 16">
  <!-- The DoneWise robot head as a 16px symbolic glyph. Content is inset
       (~12px wide) to match the visual weight of native status icons. -->
  <g fill="#bebebe">
    <circle cx="8" cy="2" r="1.15"/>
    <rect x="7.45" y="2.6" width="1.1" height="1.8"/>
    <path fill-rule="evenodd" d="
      M5 4.4 h6 a2.8 2.8 0 0 1 2.8 2.8 v4.2 a2.8 2.8 0 0 1 -2.8 2.8 h-6
      a2.8 2.8 0 0 1 -2.8 -2.8 v-4.2 a2.8 2.8 0 0 1 2.8 -2.8 Z
      M5.55 7.6 a0.85 0.85 0 0 1 1.7 0 v1.2 a0.85 0.85 0 0 1 -1.7 0 Z
      M8.75 7.6 a0.85 0.85 0 0 1 1.7 0 v1.2 a0.85 0.85 0 0 1 -1.7 0 Z
      M5.7 10.9 a0.62 0.62 0 0 1 0.9 -0.13 a2.75 2.75 0 0 0 2.8 0 a0.62 0.62 0 1 1 0.75 0.98
      a4 4 0 0 1 -4.3 0 a0.62 0.62 0 0 1 -0.15 -0.85 Z"/>
  </g>
</svg>
