<?xml version="1.0" encoding="UTF-8"?>
<svg xmlns="http://www.w3.org/2000/svg" width="16" height="16" viewBox="0 0 16 16">
  <!-- The DoneWise robot head, reduced to a 16px symbolic silhouette:
       antenna, rounded head, pill eyes and a smile cut out of the fill. -->
  <g fill="#bebebe">
    <circle cx="8" cy="1.7" r="1.3"/>
    <rect x="7.35" y="2.4" width="1.3" height="2"/>
    <path fill-rule="evenodd" d="
      M4.2 4.2 h7.6 a3.1 3.1 0 0 1 3.1 3.1 v4.4 a3.1 3.1 0 0 1 -3.1 3.1 h-7.6
      a3.1 3.1 0 0 1 -3.1 -3.1 v-4.4 a3.1 3.1 0 0 1 3.1 -3.1 Z
      M5.1 7.5 a0.95 0.95 0 0 1 1.9 0 v1.4 a0.95 0.95 0 0 1 -1.9 0 Z
      M9 7.5 a0.95 0.95 0 0 1 1.9 0 v1.4 a0.95 0.95 0 0 1 -1.9 0 Z
      M5.2 11.2 a0.7 0.7 0 0 1 1 -0.15 a3.1 3.1 0 0 0 3.6 0 a0.7 0.7 0 1 1 0.85 1.1
      a4.5 4.5 0 0 1 -5.3 0 a0.7 0.7 0 0 1 -0.15 -0.95 Z"/>
  </g>
</svg>
