<?xml version="1.0" encoding="UTF-8"?>
<svg xmlns="http://www.w3.org/2000/svg" width="16" height="16" viewBox="0 0 16 16">
  <!-- Error state: the robot's screen shows an exclamation mark. -->
  <g fill="#bebebe">
    <circle cx="8" cy="1.7" r="1.3"/>
    <rect x="7.35" y="2.4" width="1.3" height="2"/>
    <path fill-rule="evenodd" d="
      M4.2 4.2 h7.6 a3.1 3.1 0 0 1 3.1 3.1 v4.4 a3.1 3.1 0 0 1 -3.1 3.1 h-7.6
      a3.1 3.1 0 0 1 -3.1 -3.1 v-4.4 a3.1 3.1 0 0 1 3.1 -3.1 Z
      M7.05 6.6 a0.95 0.95 0 0 1 1.9 0 v2.6 a0.95 0.95 0 0 1 -1.9 0 Z
      M7.05 11.5 a0.95 0.95 0 0 1 1.9 0 a0.95 0.95 0 0 1 -1.9 0 Z"/>
  </g>
</svg>
